<svg xmlns="http://www.w3.org/2000/svg" xmlns:xlink="http://www.w3.org/1999/xlink" width="500" zoomAndPan="magnify" viewBox="0 0 375 374.999991" height="500" preserveAspectRatio="xMidYMid meet" version="1.0"><defs><clipPath id="8044816871"><path d="M 18 97.171875 L 356.867188 97.171875 L 356.867188 277.921875 L 18 277.921875 Z M 18 97.171875 " clip-rule="nonzero"/></clipPath></defs><g clip-path="url(#8044816871)"><path fill="#00bf63" d="M 108.457031 97.171875 C 58.894531 97.171875 18.128906 137.765625 18.128906 187.5 C 18.128906 237.1875 58.773438 277.828125 108.457031 277.828125 C 138.335938 277.828125 158.367188 263.660156 173.691406 244.328125 C 166.578125 233.375 160.585938 222.019531 155.1875 211.382812 C 142.292969 231.988281 129.097656 243.953125 108.457031 243.953125 C 77.078125 243.953125 52.003906 218.882812 52.003906 187.5 C 52.003906 156.160156 77.269531 131.042969 108.457031 131.042969 C 124.566406 131.042969 134.0625 136.921875 144.097656 148.265625 C 154.128906 159.609375 163.050781 176.753906 172.28125 195.105469 C 181.507812 213.457031 191.058594 233.023438 205.402344 249.203125 C 219.75 265.378906 240.527344 277.828125 266.53125 277.828125 C 315.792969 277.828125 356.859375 237.339844 356.859375 187.5 C 356.859375 137.8125 316.21875 97.171875 266.53125 97.171875 C 236.613281 97.171875 216.589844 111.457031 201.277344 130.910156 C 208.382812 141.898438 214.363281 153.277344 219.757812 163.925781 C 232.699219 143.113281 245.894531 131.042969 266.53125 131.042969 C 297.914062 131.042969 322.988281 156.117188 322.988281 187.5 C 322.988281 218.726562 297.234375 243.953125 266.53125 243.953125 C 250.347656 243.953125 240.800781 238.050781 230.742188 226.707031 C 220.683594 215.363281 211.761719 198.234375 202.535156 179.890625 C 193.308594 161.546875 183.789062 141.996094 169.480469 125.816406 C 155.171875 109.640625 134.417969 97.171875 108.457031 97.171875 Z M 108.457031 97.171875 " fill-opacity="1" fill-rule="nonzero"/></g></svg>