<svg xmlns="http://www.w3.org/2000/svg" xmlns:xlink="http://www.w3.org/1999/xlink" width="500" zoomAndPan="magnify" viewBox="0 0 375 374.999991" height="500" preserveAspectRatio="xMidYMid meet" version="1.0"><defs><g/><clipPath id="e52246accc"><path d="M 8.316406 160.078125 L 111.066406 160.078125 L 111.066406 214.828125 L 8.316406 214.828125 Z M 8.316406 160.078125 " clip-rule="nonzero"/></clipPath></defs><g fill="#00bf63" fill-opacity="1"><g transform="translate(118.930988, 209.212566)"><g><path d="M 36.125 -18.890625 C 36.125 -12.710938 34.664062 -7.914062 31.75 -4.5 C 28.832031 -1.082031 24.773438 0.625 19.578125 0.625 C 14.410156 0.625 10.347656 -1.0625 7.390625 -4.4375 C 4.441406 -7.820312 2.945312 -12.566406 2.90625 -18.671875 L 2.90625 -26.546875 C 2.90625 -32.867188 4.367188 -37.804688 7.296875 -41.359375 C 10.234375 -44.921875 14.304688 -46.703125 19.515625 -46.703125 C 24.640625 -46.703125 28.675781 -44.957031 31.625 -41.46875 C 34.582031 -37.976562 36.082031 -33.078125 36.125 -26.765625 Z M 26.796875 -26.609375 C 26.796875 -30.765625 26.203125 -33.851562 25.015625 -35.875 C 23.835938 -37.90625 22.003906 -38.921875 19.515625 -38.921875 C 17.046875 -38.921875 15.222656 -37.941406 14.046875 -35.984375 C 12.867188 -34.035156 12.257812 -31.066406 12.21875 -27.078125 L 12.21875 -18.890625 C 12.21875 -14.859375 12.816406 -11.890625 14.015625 -9.984375 C 15.210938 -8.078125 17.066406 -7.125 19.578125 -7.125 C 22.003906 -7.125 23.804688 -8.054688 24.984375 -9.921875 C 26.171875 -11.785156 26.773438 -14.679688 26.796875 -18.609375 Z M 26.796875 -26.609375 "/></g></g></g><g fill="#00bf63" fill-opacity="1"><g transform="translate(158.032181, 209.212566)"><g><path d="M 15.625 -6.796875 C 18.21875 -6.796875 19.535156 -8.484375 19.578125 -11.859375 L 28 -11.859375 C 27.957031 -8.128906 26.804688 -5.113281 24.546875 -2.8125 C 22.296875 -0.519531 19.382812 0.625 15.8125 0.625 C 11.40625 0.625 8.039062 -0.742188 5.71875 -3.484375 C 3.40625 -6.222656 2.226562 -10.257812 2.1875 -15.59375 L 2.1875 -18.3125 C 2.1875 -23.695312 3.328125 -27.800781 5.609375 -30.625 C 7.898438 -33.445312 11.28125 -34.859375 15.75 -34.859375 C 19.53125 -34.859375 22.503906 -33.691406 24.671875 -31.359375 C 26.847656 -29.035156 27.957031 -25.734375 28 -21.453125 L 19.578125 -21.453125 C 19.554688 -23.367188 19.238281 -24.84375 18.625 -25.875 C 18.019531 -26.914062 17.007812 -27.4375 15.59375 -27.4375 C 14.03125 -27.4375 12.910156 -26.878906 12.234375 -25.765625 C 11.566406 -24.660156 11.210938 -22.515625 11.171875 -19.328125 L 11.171875 -15.84375 C 11.171875 -13.0625 11.304688 -11.117188 11.578125 -10.015625 C 11.847656 -8.910156 12.300781 -8.097656 12.9375 -7.578125 C 13.570312 -7.054688 14.46875 -6.796875 15.625 -6.796875 Z M 15.625 -6.796875 "/></g></g></g><g fill="#00bf63" fill-opacity="1"><g transform="translate(187.832605, 209.212566)"><g><path d="M 13.671875 -42.65625 L 13.671875 -34.234375 L 18.25 -34.234375 L 18.25 -27.5 L 13.671875 -27.5 L 13.671875 -10.5 C 13.671875 -9.15625 13.851562 -8.226562 14.21875 -7.71875 C 14.59375 -7.207031 15.304688 -6.953125 16.359375 -6.953125 C 17.222656 -6.953125 17.929688 -7.03125 18.484375 -7.1875 L 18.40625 -0.21875 C 16.894531 0.34375 15.253906 0.625 13.484375 0.625 C 7.703125 0.625 4.78125 -2.679688 4.71875 -9.296875 L 4.71875 -27.5 L 0.765625 -27.5 L 0.765625 -34.234375 L 4.71875 -34.234375 L 4.71875 -42.65625 Z M 13.671875 -42.65625 "/></g></g></g><g fill="#00bf63" fill-opacity="1"><g transform="translate(207.731194, 209.212566)"><g><path d="M 2.21875 -18.21875 C 2.21875 -23.40625 3.441406 -27.472656 5.890625 -30.421875 C 8.335938 -33.378906 11.722656 -34.859375 16.046875 -34.859375 C 20.410156 -34.859375 23.816406 -33.378906 26.265625 -30.421875 C 28.710938 -27.472656 29.9375 -23.382812 29.9375 -18.15625 L 29.9375 -15.984375 C 29.9375 -10.765625 28.722656 -6.691406 26.296875 -3.765625 C 23.867188 -0.835938 20.472656 0.625 16.109375 0.625 C 11.710938 0.625 8.296875 -0.84375 5.859375 -3.78125 C 3.429688 -6.71875 2.21875 -10.804688 2.21875 -16.046875 Z M 11.203125 -15.984375 C 11.203125 -9.859375 12.835938 -6.796875 16.109375 -6.796875 C 19.117188 -6.796875 20.742188 -9.347656 20.984375 -14.453125 L 21.015625 -18.21875 C 21.015625 -21.34375 20.578125 -23.660156 19.703125 -25.171875 C 18.835938 -26.679688 17.617188 -27.4375 16.046875 -27.4375 C 14.523438 -27.4375 13.335938 -26.679688 12.484375 -25.171875 C 11.628906 -23.660156 11.203125 -21.34375 11.203125 -18.21875 Z M 11.203125 -15.984375 "/></g></g></g><g fill="#00bf63" fill-opacity="1"><g transform="translate(239.967539, 209.212566)"><g><path d="M 27.46875 -18.796875 L 13 -18.796875 L 13 0 L 3.703125 0 L 3.703125 -46.0625 L 29.203125 -46.0625 L 29.203125 -38.3125 L 13 -38.3125 L 13 -26.515625 L 27.46875 -26.515625 Z M 27.46875 -18.796875 "/></g></g></g><g fill="#00bf63" fill-opacity="1"><g transform="translate(270.780292, 209.212566)"><g><path d="M 20.09375 -3.125 C 18.238281 -0.625 15.75 0.625 12.625 0.625 C 9.476562 0.625 7.09375 -0.453125 5.46875 -2.609375 C 3.84375 -4.773438 3.03125 -7.921875 3.03125 -12.046875 L 3.03125 -34.234375 L 11.984375 -34.234375 L 11.984375 -11.828125 C 12.023438 -8.492188 13.132812 -6.828125 15.3125 -6.828125 C 17.351562 -6.828125 18.832031 -7.710938 19.75 -9.484375 L 19.75 -34.234375 L 28.765625 -34.234375 L 28.765625 0 L 20.34375 0 Z M 20.09375 -3.125 "/></g></g></g><g fill="#00bf63" fill-opacity="1"><g transform="translate(302.668635, 209.212566)"><g><path d="M 11.453125 -34.234375 L 11.703125 -30.84375 C 13.734375 -33.519531 16.378906 -34.859375 19.640625 -34.859375 C 25.523438 -34.859375 28.554688 -30.738281 28.734375 -22.5 L 28.734375 0 L 19.75 0 L 19.75 -21.828125 C 19.75 -23.765625 19.457031 -25.171875 18.875 -26.046875 C 18.289062 -26.929688 17.269531 -27.375 15.8125 -27.375 C 14.195312 -27.375 12.929688 -26.539062 12.015625 -24.875 L 12.015625 0 L 3.03125 0 L 3.03125 -34.234375 Z M 11.453125 -34.234375 "/></g></g></g><g fill="#00bf63" fill-opacity="1"><g transform="translate(334.556986, 209.212566)"><g><path d="M 2.0625 -18.15625 C 2.0625 -23.769531 3.007812 -27.957031 4.90625 -30.71875 C 6.800781 -33.476562 9.5625 -34.859375 13.1875 -34.859375 C 15.820312 -34.859375 18.019531 -33.722656 19.78125 -31.453125 L 19.78125 -48.59375 L 28.796875 -48.59375 L 28.796875 0 L 20.65625 0 L 20.25 -3.484375 C 18.414062 -0.742188 16.050781 0.625 13.15625 0.625 C 9.570312 0.625 6.835938 -0.742188 4.953125 -3.484375 C 3.066406 -6.222656 2.101562 -10.25 2.0625 -15.5625 Z M 11.046875 -15.921875 C 11.046875 -12.546875 11.398438 -10.1875 12.109375 -8.84375 C 12.828125 -7.5 14.039062 -6.828125 15.75 -6.828125 C 17.519531 -6.828125 18.863281 -7.617188 19.78125 -9.203125 L 19.78125 -24.84375 C 18.894531 -26.53125 17.5625 -27.375 15.78125 -27.375 C 14.132812 -27.375 12.929688 -26.707031 12.171875 -25.375 C 11.421875 -24.039062 11.046875 -21.675781 11.046875 -18.28125 Z M 11.046875 -15.921875 "/></g></g></g><g clip-path="url(#e52246accc)"><path fill="#00bf63" d="M 35.820312 160.078125 C 20.773438 160.078125 8.398438 172.402344 8.398438 187.5 C 8.398438 202.582031 20.734375 214.921875 35.820312 214.921875 C 44.890625 214.921875 50.972656 210.621094 55.621094 204.75 C 53.464844 201.425781 51.644531 197.976562 50.007812 194.75 C 46.089844 201.003906 42.085938 204.636719 35.820312 204.636719 C 26.292969 204.636719 18.679688 197.027344 18.679688 187.5 C 18.679688 177.984375 26.351562 170.359375 35.820312 170.359375 C 40.710938 170.359375 43.59375 172.144531 46.636719 175.589844 C 49.683594 179.03125 52.390625 184.238281 55.195312 189.808594 C 57.996094 195.378906 60.894531 201.320312 65.25 206.230469 C 69.605469 211.140625 75.914062 214.921875 83.808594 214.921875 C 98.761719 214.921875 111.230469 202.628906 111.230469 187.5 C 111.230469 172.414062 98.890625 160.078125 83.808594 160.078125 C 74.722656 160.078125 68.644531 164.414062 63.996094 170.320312 C 66.152344 173.65625 67.96875 177.109375 69.609375 180.34375 C 73.535156 174.023438 77.542969 170.359375 83.808594 170.359375 C 93.335938 170.359375 100.945312 177.972656 100.945312 187.5 C 100.945312 196.980469 93.128906 204.636719 83.808594 204.636719 C 78.894531 204.636719 75.996094 202.84375 72.941406 199.402344 C 69.890625 195.957031 67.179688 190.757812 64.378906 185.1875 C 61.578125 179.621094 58.6875 173.683594 54.34375 168.773438 C 50 163.863281 43.699219 160.078125 35.820312 160.078125 Z M 35.820312 160.078125 " fill-opacity="1" fill-rule="nonzero"/></g></svg>